<?xml version="1.0" encoding="iso-8859-1"?>
<!-- Generator: Adobe Illustrator 16.0.0, SVG Export Plug-In . SVG Version: 6.00 Build 0)  -->
<!DOCTYPE svg PUBLIC "-//W3C//DTD SVG 1.1//EN" "http://www.w3.org/Graphics/SVG/1.1/DTD/svg11.dtd">
<svg version="1.1" xmlns="http://www.w3.org/2000/svg" xmlns:xlink="http://www.w3.org/1999/xlink" x="0px" y="0px"
	 width="50px" height="50px" viewBox="3.498521739130437 1.9400000000000022 51.086956521739125 46.096" style="enable-background:new 0 0 31.854 31.854;"
	 xml:space="preserve">
<g>
  <path fill="#ffffff" d="M46.55 45.5c-.001-.028.005-.056.002-.084L45.42 33.303l-.599-.684C29.163 12.315 29.06 12.5 28.39 12.5h-.367l-.279.05c-.398.334-6.076 4.391-9.795 7.161l-.812.604L33.99 42.39l8.579 3.11H4.042v2h50v-2H46.55zM19.955 20.71c1.936-1.442 6.47-4.823 8.31-6.221 2.047 2.481 9.213 11.703 14.374 18.39l-8.302 6.668L19.955 20.71zm15.964 20.146l7.52-5.979.956 9.142-8.476-3.163z"></path>
  <path fill="#ffffff" d="M15.622 18.743l11.77-8.522-.643-.818c-.146-.185-3.573-4.543-4.549-5.667-.904-1.041-1.963-1.26-2.691-1.26a3.34 3.34 0 0 0-1.124.184l-.155.074c-.132.077-3.248 1.918-5.637 3.989-1.856 1.609-2.14 2.615-2.167 3.373-.328 1.587 2.318 5.188 4.597 7.928l.599.719zm-3.204-8.546c.007-.173.03-.702 1.485-1.962 2.017-1.748 4.688-3.384 5.239-3.716.074-.018.205-.042.365-.042.461 0 .848.187 1.182.571.695.8 2.776 3.424 3.843 4.774l-8.561 6.198c-1.808-2.264-3.56-4.854-3.585-5.52.017-.083.027-.183.032-.303z"></path>
  <path fill="#ffffff" d="M24.7 21.481c-.13-.172-.444-.153-.701.041l-.466.353c-.257.195-.361.492-.231.664l9.52 12.613c.13.172.444.153.701-.041l.466-.353c.257-.195.36-.492.23-.664L24.7 21.481z"></path>
</g>
</svg>